<svg width="231" height="230" viewBox="0 0 231 230" fill="none" xmlns="http://www.w3.org/2000/svg">
<path fill-rule="evenodd" clip-rule="evenodd" d="M230.092 121.003C229.935 124.053 229.659 127.072 229.269 130.054L100.11 0.976507C103.095 0.586511 106.115 0.310818 109.168 0.153971L230.092 121.003ZM89.4655 2.88081C92.5533 2.1766 95.6883 1.59652 98.8652 1.1461L229.1 131.299C228.649 134.474 228.068 137.607 227.364 140.692L89.4655 2.88081ZM221.615 158.778C222.587 156.419 223.483 154.021 224.3 151.587L78.5641 5.94232C76.1283 6.75865 73.7288 7.6542 71.3688 8.62591L221.615 158.778ZM70.3708 9.04234C67.7911 10.1331 65.2594 11.3153 62.7799 12.5847L217.654 167.361C218.924 164.883 220.107 162.353 221.198 159.775L70.3708 9.04234ZM228.035 92.4479C227.126 87.8803 225.946 83.4102 224.514 79.055L151.142 5.72918C146.784 4.29734 142.311 3.11863 137.74 2.21043L228.035 92.4479ZM135.992 1.87715C131.822 1.11553 127.572 0.578592 123.258 0.279358L229.967 106.921C229.667 102.609 229.13 98.3629 228.368 94.1949L135.992 1.87715ZM230.246 115C230.246 116.558 230.215 118.108 230.154 119.651L110.521 0.092322C112.064 0.030968 113.615 0 115.174 0C117.381 0 119.573 0.0620621 121.748 0.184535L230.062 108.43C230.184 110.604 230.246 112.795 230.246 115ZM227.096 141.839C226.392 144.779 225.576 147.676 224.651 150.524L79.6279 5.59162C82.4777 4.66754 85.3762 3.85157 88.3187 3.14856L227.096 141.839ZM213.929 55.935C217.886 62.5276 221.2 69.5493 223.786 76.9136L153.284 6.45677C160.653 9.04068 167.679 12.3528 174.276 16.3069L213.929 55.935ZM61.848 13.0672C59.4321 14.3321 57.0668 15.6802 54.7557 17.1078L213.128 175.38C214.556 173.071 215.905 170.707 217.171 168.293L61.848 13.0672ZM212.584 176.251L53.8848 17.6512C51.8752 18.9175 49.9075 20.2442 47.9844 21.6288L208.604 182.147C209.989 180.226 211.317 178.259 212.584 176.251ZM208.008 182.966L47.1653 22.2239C45.0322 23.7883 42.9551 25.4243 40.9374 27.1284L203.101 189.19C204.806 187.174 206.443 185.098 208.008 182.966ZM178.064 18.678C191.409 27.3981 202.831 38.8132 211.557 52.15L178.064 18.678ZM0.300937 108.178C0.500329 104.772 0.848055 101.406 1.33775 98.0855L132.099 228.765C128.777 229.254 125.409 229.602 122 229.801L0.300937 108.178ZM0.230115 109.521L120.657 229.872C118.84 229.957 117.012 230 115.174 230C113.717 230 112.267 229.973 110.824 229.919L0.182522 119.348C0.12887 117.905 0.101807 116.456 0.101807 115C0.101807 113.163 0.144894 111.337 0.230115 109.521ZM0.2469 120.826L109.345 229.855C105.137 229.645 100.99 229.21 96.9134 228.56L1.54266 133.249C0.892702 129.175 0.45682 125.03 0.2469 120.826ZM1.82657 134.947L95.2148 228.276C90.1841 227.397 85.2658 226.191 80.4826 224.682L5.42333 149.67C3.91279 144.889 2.70632 139.974 1.82657 134.947ZM6.10904 151.769C8.49448 158.838 11.5488 165.6 15.1969 171.979L58.1589 214.914C64.542 218.56 71.3082 221.613 78.3822 223.997L6.10904 151.769ZM17.2771 175.472C26.6728 190.631 39.4954 203.446 54.664 212.835L17.2771 175.472ZM5.91048 78.825C5.07928 81.3338 4.33218 83.8808 3.6725 86.4628L143.729 226.432C146.313 225.772 148.861 225.026 151.372 224.195L5.91048 78.825ZM142.597 226.714L3.38966 87.5939C2.64529 90.6367 2.02207 93.7269 1.5254 96.8593L133.326 228.577C136.461 228.081 139.553 227.458 142.597 226.714ZM6.2667 77.7673C7.19976 75.0408 8.23246 72.3604 9.36044 69.7306L160.472 220.747C157.84 221.874 155.158 222.906 152.43 223.839L6.2667 77.7673ZM33.6683 33.8203C32.0235 35.4696 30.4284 37.1685 28.8857 38.9147L191.307 201.234C193.054 199.692 194.754 198.098 196.405 196.455L33.6683 33.8203ZM190.553 201.894L28.2254 39.6686C26.4964 41.6599 24.8348 43.7112 23.2441 45.819L184.399 206.872C186.508 205.283 188.56 203.622 190.553 201.894ZM197.11 195.746L34.3775 33.1152C36.2479 31.2718 38.1812 29.4919 40.1738 27.7791L202.45 189.953C200.736 191.945 198.955 193.877 197.11 195.746ZM183.589 207.477L22.6391 46.6281C21.0521 48.7696 19.5378 50.9682 18.0999 53.2202L176.993 212.013C179.246 210.576 181.446 209.063 183.589 207.477ZM168.962 216.69C166.512 217.987 164.009 219.198 161.458 220.319L9.78874 68.7449C10.9108 66.1954 12.1227 63.6943 13.4206 61.2457L168.962 216.69ZM169.883 216.197L13.914 60.325C15.0628 58.2045 16.2764 56.1241 17.5521 54.0865L176.126 212.561C174.087 213.836 172.005 215.048 169.883 216.197Z" fill="url(#paint0_linear_37_196)" fill-opacity="0.4"/>
<defs>
<linearGradient id="paint0_linear_37_196" x1="46.5345" y1="25.2193" x2="180.675" y2="209.4" gradientUnits="userSpaceOnUse">
<stop stop-color="#ED7B50"/>
<stop offset="0.541667" stop-color="#488AEA"/>
<stop offset="1" stop-color="#2C2C2C"/>
</linearGradient>
</defs>
</svg>
